<svg xmlns="http://www.w3.org/2000/svg" width="33.7" height="30.75" viewBox="0 0 33.7 30.75">
  <path id="print" d="M32.4,17.05v-6.3H15.6v6.3H14.05V9.25h19.9v7.8ZM8.7,18.6h0Zm26.95,4.85a1.736,1.736,0,0,0,1.275-.525A1.75,1.75,0,0,0,35.7,19.95a1.736,1.736,0,0,0-1.275.525A1.75,1.75,0,0,0,35.65,23.45Zm-3.25,15v-9.8H15.6v9.8ZM33.95,40H14.05V31.6H7.15V20.7a3.513,3.513,0,0,1,1.075-2.575A3.571,3.571,0,0,1,10.85,17.05h26.3a3.629,3.629,0,0,1,3.7,3.65V31.6h-6.9Zm5.35-9.9V20.7a1.993,1.993,0,0,0-.625-1.5,2.12,2.12,0,0,0-1.525-.6H10.85a2.075,2.075,0,0,0-1.525.625A2.017,2.017,0,0,0,8.7,20.7v9.4h5.35v-3h19.9v3Z" transform="translate(-7.15 -9.25)"/>
</svg>
