<svg xmlns="http://www.w3.org/2000/svg" width="57" height="57" viewBox="0 0 57 57">
  <g id="Group_634" data-name="Group 634" transform="translate(-321 -1772)">
    <g id="Group_633" data-name="Group 633">
      <g id="Group_632" data-name="Group 632">
        <circle id="Ellipse_129" data-name="Ellipse 129" cx="28.5" cy="28.5" r="28.5" transform="translate(321 1772)" fill="#60cbc1"/>
        <path id="person_FILL0_wght200_GRAD0_opsz48" d="M24,22.75a5.544,5.544,0,0,1-4.125-1.65,5.673,5.673,0,0,1-1.625-4.15A5.56,5.56,0,0,1,24,11.2a5.56,5.56,0,0,1,5.75,5.75,5.673,5.673,0,0,1-1.625,4.15A5.544,5.544,0,0,1,24,22.75ZM10,37.25v-2.9a3.915,3.915,0,0,1,.75-2.375,5.225,5.225,0,0,1,2-1.625,34.116,34.116,0,0,1,5.75-1.975,22.745,22.745,0,0,1,11,0,32.669,32.669,0,0,1,5.7,1.975,5.151,5.151,0,0,1,2.05,1.625A3.915,3.915,0,0,1,38,34.35v2.9Zm1.55-1.55h24.9V34.35a2.574,2.574,0,0,0-.5-1.475,3.625,3.625,0,0,0-1.4-1.175,24.492,24.492,0,0,0-5.275-1.875A24.131,24.131,0,0,0,24,29.25a24.471,24.471,0,0,0-5.3.575A23.4,23.4,0,0,0,13.45,31.7a3.625,3.625,0,0,0-1.4,1.175,2.574,2.574,0,0,0-.5,1.475ZM24,21.2A4.154,4.154,0,0,0,27.025,20a4.027,4.027,0,0,0,1.225-3,4.278,4.278,0,0,0-7.275-3.025A4.11,4.11,0,0,0,19.75,17a4.027,4.027,0,0,0,1.225,3A4.154,4.154,0,0,0,24,21.2ZM24,17ZM24,35.7Z" transform="translate(325.5 1776.275)"/>
      </g>
    </g>
  </g>
</svg>
