<svg xmlns="http://www.w3.org/2000/svg" width="184.24" height="41.867" viewBox="0 0 184.24 41.867">
  <g id="nishan" transform="translate(0 0)">
    <path id="Path_1392" data-name="Path 1392" d="M975.271,92.647a9.555,9.555,0,0,0-8.989-5.557c-2.91,0-12.5,2.455-12.5,17.328,0,10.264,6.285,14.295,11.654,14.295,4.484,0,8.609-3.464,9.833-8.268l.009,7.415H981.8V87.985h-6.525v4.661Zm.018,9.768c-.288,6.249-3.875,11.337-8.01,11.365s-7.253-5.015-6.964-11.265,3.875-11.337,8.01-11.365S975.577,96.165,975.289,102.414Z" transform="translate(-841.592 -76.846)" fill="#040101"/>
    <rect id="Rectangle_124" data-name="Rectangle 124" width="6.513" height="30.771" transform="translate(33.425 10.244)" fill="#040101"/>
    <circle id="Ellipse_22" data-name="Ellipse 22" cx="3.256" cy="3.256" r="3.256" transform="translate(33.425 0)" fill="#040101"/>
    <path id="Path_1393" data-name="Path 1393" d="M27.99,102.943c0-10.223-3.9-15.853-10.993-15.853-2.809,0-7.624,1.1-10.471,7.917V87.985H0v29.875H6.526V103.07C6.649,98.2,9.738,92.431,14,92.431c6.8,0,7.5,7.714,7.5,10.512v14.917h6.487V102.943Z" transform="translate(0 -76.846)" fill="#040101"/>
    <path id="Path_1394" data-name="Path 1394" d="M1265.9,102.943c0-10.223-3.9-15.853-10.993-15.853-2.809,0-7.624,1.1-10.471,7.917V87.985h-6.526v29.875h6.526V103.07c.124-4.873,3.212-10.639,7.476-10.639,6.8,0,7.5,7.714,7.5,10.512v14.917h6.487V102.943Z" transform="translate(-1092.302 -76.846)" fill="#040101"/>
    <path id="Path_1395" data-name="Path 1395" d="M697.66,26.1c0-10.223-3.9-15.853-10.993-15.853-2.809,0-7.624,1.1-10.471,7.917V0H669.67V41.016H676.2V26.226c.124-4.873,3.212-10.639,7.476-10.639,6.8,0,7.5,7.714,7.5,10.512V41.016h6.487V26.1Z" transform="translate(-590.901 0)" fill="#040101"/>
    <path id="Path_1396" data-name="Path 1396" d="M399.958,101.849l-1.551-.308c-3.631-.881-6.936-2.2-6.783-6.373.155-4.223,4.571-5.684,6.86-5.573,7.441.359,7.2,8.478,7.194,8.543l6.936-1.224s.029-9.853-14.369-9.853c-4.362,0-13.313,1.562-13.568,8.515-.252,6.87,7.653,7.593,12.2,8.323l1.551.308c3.631.881,6.936,2.2,6.783,6.373-.155,4.223-4.571,5.684-6.86,5.573-7.441-.359-7.2-8.478-7.194-8.543l-6.936,1.224s0,9.853,14.369,9.853c4.362,0,13.313-1.562,13.568-8.515.252-6.87-7.653-7.593-12.2-8.323Z" transform="translate(-339.026 -76.82)" fill="#040101"/>
    <g id="Group_337" data-name="Group 337" transform="translate(173.597 0)">
      <path id="Path_1397" data-name="Path 1397" d="M1508.954,30.7l-.992-1.669h-.778V30.7h-.784V26.23h1.964a1.357,1.357,0,0,1,1.462,1.4,1.235,1.235,0,0,1-1.06,1.314l1.093,1.756h-.906Zm-.7-3.782h-1.073v1.421h1.073a.712.712,0,1,0,0-1.421Z" transform="translate(-1502.808 -23.145)" fill="#040101"/>
      <path id="Path_1398" data-name="Path 1398" d="M1481.181.816a4.505,4.505,0,1,1-4.505,4.505,4.51,4.51,0,0,1,4.505-4.505m0-.816a5.321,5.321,0,1,0,5.321,5.321A5.321,5.321,0,0,0,1481.181,0h0Z" transform="translate(-1475.86 0)" fill="#040101"/>
    </g>
  </g>
</svg>
